<svg width="800" height="800" viewBox="0 0 800 800" fill="none" xmlns="http://www.w3.org/2000/svg">
<g clip-path="url(#clip0_1_98)">
<path d="M400 800C620.914 800 800 620.914 800 400C800 179.086 620.914 0 400 0C179.086 0 0 179.086 0 400C0 620.914 179.086 800 400 800Z" fill="#B64724"/>
<path d="M431.155 798.802C590.05 786.563 722.939 681.481 775.658 537.722L530.583 292.092L461.525 360.063L335.356 233.894L279.888 288.838L235.922 334.281L325.469 425.125L139.664 507.308L431.155 798.802Z" fill="#5F9EE9" fill-opacity="0.71"/>
<path d="M285.656 354.694C324.751 354.694 356.444 323.001 356.444 283.906C356.444 244.811 324.751 213.119 285.656 213.119C246.561 213.119 214.869 244.811 214.869 283.906C214.869 323.001 246.561 354.694 285.656 354.694Z" fill="#FFD300"/>
<path d="M285.645 213.134C285.303 213.134 284.967 213.156 284.625 213.161V354.669C284.967 354.673 285.303 354.695 285.645 354.695C324.734 354.695 356.425 323.005 356.425 283.916C356.425 244.827 324.736 213.134 285.645 213.134Z" fill="#F4A200"/>
<path d="M139.664 507.311C139.664 426.686 205.022 361.328 285.647 361.328C366.272 361.328 431.63 426.686 431.63 507.311H139.664Z" fill="#FC6F58"/>
<path d="M285.645 361.328C285.303 361.328 284.967 361.353 284.625 361.355V507.311H431.628C431.628 426.686 366.27 361.328 285.645 361.328Z" fill="#F1543F"/>
<path d="M476.23 408.242C515.325 408.242 547.017 376.55 547.017 337.455C547.017 298.36 515.325 266.667 476.23 266.667C437.135 266.667 405.442 298.36 405.442 337.455C405.442 376.55 437.135 408.242 476.23 408.242Z" fill="#93845F"/>
<path d="M476.239 266.667C476.116 266.667 475.994 266.675 475.87 266.675V408.216C475.994 408.216 476.116 408.223 476.239 408.223C515.328 408.223 547.019 376.533 547.019 337.444C547.019 298.356 515.331 266.667 476.239 266.667Z" fill="#51412A"/>
<path d="M330.258 560.844C330.258 480.219 395.616 414.861 476.241 414.861C556.866 414.861 622.223 480.222 622.223 560.844H330.258Z" fill="#31BAFD"/>
<path d="M476.239 414.861C476.116 414.861 475.994 414.869 475.87 414.869V560.844H622.222C622.222 480.22 556.864 414.861 476.239 414.861Z" fill="#2B9ED8"/>
</g>
<defs>
<clipPath id="clip0_1_98">
<rect width="800" height="800" fill="white"/>
</clipPath>
</defs>
</svg>
